<svg xmlns="http://www.w3.org/2000/svg" height="1024" preserveAspectRatio="none" style="display: block;" version="1.1" viewBox="0 0 2048 2048" width="1024">
<path d="M 0 0 L 2048 0 L 2048 2048 L 0 2048 L 0 0 z" fill="rgb(253,252,246)" transform="translate(0,0)"></path>
<path d="M 239.889 1169.36 C 226.932 1142.57 213.535 1102.25 202.658 1073.81 C 145.766 925.065 125.747 802.245 158.442 644.512 C 188.696 490.112 257.04 334.126 391.273 243.67 C 539.696 143.651 865.443 130.711 973.37 295.901 L 973.77 295.866 C 1043.43 223.714 1133.98 185.982 1233.83 185.239 C 1342.84 184.428 1447.7 223.835 1554.12 246.188 C 1574.72 250.656 1595.44 254.548 1616.26 257.858 C 1674.59 267.05 1734.04 273.901 1778.42 317.903 C 1806 345.247 1818.81 379.615 1818.45 418.047 C 1819.6 548.353 1697.59 642.03 1689.95 767.903 C 1686.76 820.52 1711.21 889.604 1731.61 937.632 C 1743.84 966.573 1756.33 995.4 1769.1 1024.11 C 1801.31 1096.87 1834.14 1170.76 1827.75 1252.39 C 1826.84 1263.96 1825.67 1286.33 1819.86 1295.96 C 1848.22 1363.41 1881.16 1429.94 1910 1497.05 C 1898.7 1515.61 1889.7 1536.45 1879.62 1555.74 C 1875.64 1563.35 1870.3 1574.92 1865.48 1581.76 L 1267.14 1635.95 L 1097.05 1651.64 C 1073.91 1653.78 1035.17 1656.11 1013.18 1659.69 C 999.966 1673.06 987.546 1687.15 974.145 1700.42 C 905.328 1768.56 825.466 1834.71 730.959 1862.48 C 640.193 1889.14 550.735 1875.25 468.542 1830.17 C 347.237 1763.63 233.709 1639.08 194.839 1504.53 C 158.46 1378.59 177.741 1282.25 239.889 1169.36 z" fill="rgb(51,51,47)" transform="translate(0,0)"></path>
<path d="M 239.889 1169.36 C 226.932 1142.57 213.535 1102.25 202.658 1073.81 C 145.766 925.065 125.747 802.245 158.442 644.512 C 188.696 490.112 257.04 334.126 391.273 243.67 C 539.696 143.651 865.443 130.711 973.37 295.901 L 973.77 295.866 C 985.445 313.588 996.118 340.724 1000.52 361.522 C 1013.88 424.698 1020.51 490.388 1023.75 554.786 C 1023.86 556.912 1024.1 558.199 1025.32 559.91 C 964.467 627.443 902.998 694.418 840.921 760.828 C 778.189 764.776 715.055 772.64 652.346 777.427 C 640.66 778.319 628.766 779.714 617.083 780.242 C 594.161 783.631 560.342 785.605 536.323 787.74 L 388.209 801.08 C 366.086 803.069 336.437 805.251 315.012 808.136 C 273.452 813.734 275.937 889.591 263.83 921.337 C 260.839 929.18 275.935 976.909 278.583 986.368 C 287.538 1019.38 296.9 1052.27 306.668 1085.05 C 284.7 1105.07 256.845 1144.92 239.889 1169.36 z" fill="rgb(254,229,167)" transform="translate(0,0)"></path>
<path d="M 973.37 295.901 L 973.77 295.866 C 985.445 313.588 996.118 340.724 1000.52 361.522 C 1013.88 424.698 1020.51 490.388 1023.75 554.786 C 1023.86 556.912 1024.1 558.199 1025.32 559.91 C 964.467 627.443 902.998 694.418 840.921 760.828 C 778.189 764.776 715.055 772.64 652.346 777.427 C 640.66 778.319 628.766 779.714 617.083 780.242 C 628.859 763.8 651.342 740.358 665.206 723.732 C 695.068 687.868 723.608 650.923 750.767 612.97 C 776.64 576.187 801.949 539.01 826.686 501.453 C 860.316 449.746 893.492 397.56 930.092 347.818 C 943.369 329.773 958.64 312.796 973.37 295.901 z" fill="rgb(157,175,131)" transform="translate(0,0)"></path>
<path d="M 973.77 295.866 C 1043.43 223.714 1133.98 185.982 1233.83 185.239 C 1342.84 184.428 1447.7 223.835 1554.12 246.188 C 1574.72 250.656 1595.44 254.548 1616.26 257.858 C 1674.59 267.05 1734.04 273.901 1778.42 317.903 C 1806 345.247 1818.81 379.615 1818.45 418.047 C 1819.6 548.353 1697.59 642.03 1689.95 767.903 C 1686.76 820.52 1711.21 889.604 1731.61 937.632 C 1743.84 966.573 1756.33 995.4 1769.1 1024.11 C 1801.31 1096.87 1834.14 1170.76 1827.75 1252.39 C 1826.84 1263.96 1825.67 1286.33 1819.86 1295.96 C 1798.33 1251.95 1778.18 1205.83 1757.99 1161.12 L 1653.65 925.216 L 1603.85 809.851 C 1594.73 788.876 1585.7 767.815 1576.03 747.122 C 1569.61 733.411 1552.25 717.54 1536.51 716.574 C 1511.35 715.03 1484.35 719.716 1459.1 721.783 C 1403.2 726.359 1347.05 734.067 1291.2 738.377 C 1302.69 719.302 1318.71 697.837 1328.38 677.923 C 1329.73 675.141 1328.95 672.953 1327.64 670.577 C 1317.62 665.24 1172.21 650.685 1152.18 648.028 C 1169.65 583.132 1186.43 518.051 1202.51 452.797 C 1209.13 426.857 1216.96 401.092 1222.79 374.982 C 1224.78 366.044 1230.3 354.969 1227.9 346.029 C 1225.4 343.033 1226.92 344.061 1223.1 342.924 C 1218.35 343.809 1203.64 361.375 1199.66 365.761 L 1161.83 407.502 L 1025.32 559.91 C 1024.1 558.199 1023.86 556.912 1023.75 554.786 C 1020.51 490.388 1013.88 424.698 1000.52 361.522 C 996.118 340.724 985.445 313.588 973.77 295.866 z" fill="rgb(183,213,220)" transform="translate(0,0)"></path>
<path d="M 306.668 1085.05 C 345.866 1226.77 385.829 1368.28 426.556 1509.57 C 439.638 1555.6 453.085 1601.52 466.895 1647.34 C 471.214 1661.49 480.961 1695.72 486.439 1707.73 C 490.945 1710.17 608.232 1697.65 621.477 1696.4 L 846.899 1674.86 C 901.486 1669.58 958.567 1663.65 1013.18 1659.69 C 999.966 1673.06 987.546 1687.15 974.145 1700.42 C 905.328 1768.56 825.466 1834.71 730.959 1862.48 C 640.193 1889.14 550.735 1875.25 468.542 1830.17 C 347.237 1763.63 233.709 1639.08 194.839 1504.53 C 158.46 1378.59 177.741 1282.25 239.889 1169.36 C 256.845 1144.92 284.7 1105.07 306.668 1085.05 z" fill="rgb(157,175,131)" transform="translate(0,0)"></path>
<path d="M 524.672 1414.97 C 550.204 1402.78 577.101 1388.27 602.396 1375.19 L 717.412 1315.77 C 768.024 1289.36 820.459 1263.9 870.08 1235.96 C 829.075 1304.44 791.63 1379.33 754.442 1450.21 C 751.124 1456.53 737.674 1480.37 740.927 1486.26 C 745.514 1489.45 750.882 1491.6 755.878 1487.27 C 763.868 1480.34 771.729 1473.17 779.67 1466.16 C 801.464 1447.06 822.936 1427.6 844.078 1407.79 L 1011.61 1252.49 C 1033.88 1263.56 1064.04 1281.73 1087.18 1294.21 C 1124.48 1314.37 1161.61 1334.82 1198.59 1355.57 C 1219.27 1366.91 1239.74 1377.04 1260.37 1388.79 C 1288.42 1403.58 1316.34 1418.61 1344.12 1433.91 C 1354.72 1439.72 1373.58 1449.11 1382.87 1455.02 C 1315.32 1462.41 1245.38 1468.1 1177.65 1474.42 C 1175.73 1475.23 1159.41 1476.11 1155.77 1476.4 C 1141.48 1477.51 1127.2 1478.7 1112.93 1480 L 965.564 1493.59 L 682.494 1521.52 C 650.745 1524.58 619.078 1528.03 587.321 1531.24 C 571.321 1532.85 561.545 1530.2 554.941 1514.3 C 549.799 1501.92 546.315 1489.05 542.544 1476.22 L 524.672 1414.97 z" fill="rgb(177,209,218)" transform="translate(0,0)"></path>
<path d="M 1260.37 1388.79 C 1288.42 1403.58 1316.34 1418.61 1344.12 1433.91 C 1354.72 1439.72 1373.58 1449.11 1382.87 1455.02 C 1315.32 1462.41 1245.38 1468.1 1177.65 1474.42 L 1175.52 1473.7 L 1175.51 1472.33 C 1202.15 1442.84 1227.74 1411.58 1260.37 1388.79 z" fill="rgb(253,252,246)" transform="translate(0,0)"></path>
<path d="M 1027.25 628.625 C 1077.86 557.478 1133.38 491.308 1187.02 422.815 C 1176.01 450.437 1163.67 477.914 1152.48 505.673 C 1135.13 549.589 1118.27 593.699 1101.91 637.992 C 1097.96 648.568 1083.5 683.084 1083.48 692.321 C 1085.3 694.574 1089.18 695.493 1091.97 695.561 C 1144.43 696.85 1197.42 697.032 1249.74 692.591 C 1266.33 691.183 1285.34 690.068 1301.18 685.869 C 1287.79 703.034 1264.53 727.742 1249.61 745.081 C 1200.76 802.03 1152.25 859.269 1104.08 916.795 C 1094.43 928.201 1022.98 1010.64 1021.4 1016.86 C 1022.59 1020 1022.32 1020.09 1024.98 1021.99 C 1035.18 1024.31 1070.05 1021.92 1081.93 1021.36 L 1214.01 1013.83 C 1131.31 1090.01 1049.31 1166.94 968.006 1244.6 C 953.847 1258.87 935.825 1274.83 920.928 1288.95 L 827.92 1377.1 C 846.933 1343.67 870.121 1308.62 890.406 1275.64 C 910.366 1243.19 930.525 1208.74 950.945 1176.73 C 964.369 1150.94 996.849 1104.45 1006.84 1074.26 C 1007.39 1072.59 1005.64 1070.48 1004.12 1069.25 C 996.921 1068.98 980.582 1072.16 972.575 1073.45 C 956.963 1075.91 941.333 1078.26 925.688 1080.51 C 921.936 1081.56 916.129 1082.27 912.111 1082.85 C 882.752 1087.06 853.707 1093.22 824.437 1097.86 C 881.343 1012.5 932.578 922.62 985.407 834.684 C 998.495 812.898 1013 791.278 1021.84 767.411 C 1025.94 759.163 1030.38 747.03 1024.89 738.951 C 999.841 737.097 967.643 737.193 942.047 736.814 C 969.935 700.35 998.34 664.283 1027.25 628.625 z" fill="rgb(254,229,167)" transform="translate(0,0)"></path>
<path d="M 1021.84 767.411 C 1030.65 787.663 958.011 982.941 947.191 1017.73 C 944.054 1027.82 924.216 1070.78 924.312 1078.98 L 925.688 1080.51 C 921.936 1081.56 916.129 1082.27 912.111 1082.85 C 882.752 1087.06 853.707 1093.22 824.437 1097.86 C 881.343 1012.5 932.578 922.62 985.407 834.684 C 998.495 812.898 1013 791.278 1021.84 767.411 z" fill="rgb(157,175,131)" transform="translate(0,0)"></path>
<path d="M 1027.25 628.625 C 1030.33 647.204 1026.57 689.627 1026.25 709.226 C 1026.09 718.699 1023.83 728.836 1024.89 738.951 C 999.841 737.097 967.643 737.193 942.047 736.814 C 969.935 700.35 998.34 664.283 1027.25 628.625 z" fill="rgb(157,175,131)" transform="translate(0,0)"></path>
<path d="M 1394.04 962.876 C 1460.5 1018.05 1527.28 1072.82 1594.4 1127.18 C 1619.86 1148.14 1645.67 1168.67 1671.83 1188.75 C 1684.96 1198.94 1713.41 1223.92 1728.79 1225.09 C 1749.87 1272.78 1769.79 1320.12 1791.7 1367.49 C 1731.7 1328.81 1671.12 1291.06 1609.96 1254.24 C 1596.2 1245.83 1554.85 1218.5 1543.82 1213.99 C 1531.59 1220.48 1517.51 1229.56 1505.47 1236.92 L 1435.04 1280.2 L 1389.84 1307.45 C 1383.83 1311.06 1371.33 1318.13 1366.42 1321.92 L 1361.57 1325.06 C 1360.94 1325.05 1360.31 1325.04 1359.68 1325.03 C 1355.36 1320.35 1348.16 1309.08 1344.16 1303.37 L 1315.95 1263.34 C 1290.46 1227.17 1265.94 1191.02 1241.47 1154.14 C 1226.11 1130.99 1209.7 1108.2 1194.74 1084.81 C 1207.52 1074.23 1222.17 1060.12 1234.22 1048.58 L 1238.61 1044.72 L 1253.26 1030.76 C 1263.04 1040.29 1293.1 1078.13 1299.23 1081.02 C 1307.76 1077.63 1332.49 1043.25 1339.31 1034.48 C 1357.97 1010.93 1376.22 987.059 1394.04 962.876 z" fill="rgb(183,213,220)" transform="translate(0,0)"></path>
<path d="M 1234.22 1048.58 L 1235.71 1053.74 C 1240.21 1064.49 1244.91 1079.23 1249.32 1088.83 C 1253.74 1098.17 1257.82 1107.64 1262.02 1117.1 C 1279.22 1155.83 1297.51 1194.07 1316.33 1232.04 C 1317.57 1234.54 1318.14 1237.35 1318.44 1240.1 C 1332.05 1265.9 1349.74 1298.74 1361.57 1325.06 C 1360.94 1325.05 1360.31 1325.04 1359.68 1325.03 C 1355.36 1320.35 1348.16 1309.08 1344.16 1303.37 L 1315.95 1263.34 C 1290.46 1227.17 1265.94 1191.02 1241.47 1154.14 C 1226.11 1130.99 1209.7 1108.2 1194.74 1084.81 C 1207.52 1074.23 1222.17 1060.12 1234.22 1048.58 z" fill="rgb(177,209,218)" transform="translate(0,0)"></path>
<path d="M 1235.71 1053.74 C 1240.21 1064.49 1244.91 1079.23 1249.32 1088.83 C 1253.74 1098.17 1257.82 1107.64 1262.02 1117.1 C 1279.22 1155.83 1297.51 1194.07 1316.33 1232.04 C 1317.57 1234.54 1318.14 1237.35 1318.44 1240.1 C 1313.21 1234.17 1301.6 1212.15 1297.63 1204.64 C 1278.63 1168.65 1263.87 1131.22 1247.28 1094.24 C 1242.09 1084.69 1231.44 1064.3 1235.71 1053.74 z" fill="rgb(183,213,220)" transform="translate(0,0)"></path>
<path d="M 1238.61 1044.72 C 1263.76 1121.94 1298.82 1192.06 1336.89 1263.63 C 1342.63 1274.43 1359.73 1314.79 1366.42 1321.92 L 1361.57 1325.06 C 1349.74 1298.74 1332.05 1265.9 1318.44 1240.1 C 1318.14 1237.35 1317.57 1234.54 1316.33 1232.04 C 1297.51 1194.07 1279.22 1155.83 1262.02 1117.1 C 1257.82 1107.64 1253.74 1098.17 1249.32 1088.83 C 1244.91 1079.23 1240.21 1064.49 1235.71 1053.74 L 1234.22 1048.58 L 1238.61 1044.72 z" fill="rgb(248,246,238)" transform="translate(0,0)"></path>
<path d="M 684.284 1024.71 C 695.246 1030 737.416 1146.13 750.131 1158.83 C 755.228 1159.07 777.971 1153.74 784.655 1152.29 L 858.988 1136.15 C 883.101 1130.96 905.322 1127.17 929.639 1123.14 C 916.009 1154.21 895.461 1192.04 877.309 1220.72 C 871.498 1223.35 861.274 1229.71 855.361 1233.04 C 843.015 1239.83 830.575 1246.45 818.045 1252.9 L 670.5 1328.98 C 623.187 1354.05 570.113 1382.13 522.14 1405.6 C 502.054 1343.02 481.1 1265.72 464.159 1201.96 C 516.442 1161.04 568.256 1119.52 619.593 1077.42 C 641.314 1059.63 662.86 1042.99 684.284 1024.71 z" fill="rgb(177,209,218)" transform="translate(0,0)"></path>
<path d="M 396.735 999.194 L 504.15 1380.19 C 513.477 1412.95 523.12 1445.61 533.078 1478.18 C 537.561 1493.06 542.12 1509.37 547.678 1523.81 C 549.499 1528.54 555.943 1534.81 560.493 1537.03 C 564.431 1538.95 571.257 1541.69 575.808 1541.46 C 594.001 1540.57 613 1538.23 631.104 1536.28 C 661.973 1532.89 692.873 1529.79 723.8 1526.98 L 1018.71 1498.55 C 1065.55 1494.17 1118.15 1488.15 1164.52 1485.64 C 1145.24 1510.25 1118.15 1538.77 1101.01 1562.2 C 905.461 1579.56 710.001 1597.92 514.638 1617.27 L 350.601 1041.76 C 355.268 1039.28 389.173 1005.76 396.735 999.194 z" fill="rgb(177,209,218)" transform="translate(0,0)"></path>
<path d="M 920.908 779.947 L 966.453 780.19 C 947.23 809.348 928.703 838.959 910.887 868.998 C 899.403 888.138 881.994 918.455 869.643 936.154 C 865.08 929.906 852.205 908.805 847.554 906.205 C 837.779 909.85 780.596 997.505 768.284 1012.84 C 760.827 998.943 709.883 901.625 705.246 898.302 C 698.565 898.118 680.495 914.47 674.489 919.334 L 632.597 953.123 L 497.599 1060.32 C 478.66 1075.31 456.464 1094.81 437.285 1108.5 C 425.715 1070.03 415.998 1031.18 404.84 992.62 C 396.242 958.883 384.347 925.26 377.315 891.155 C 375.671 883.183 381.425 871.737 389.505 870.161 C 406.454 866.855 424.795 865.822 442.12 864.174 C 476.479 860.782 510.856 857.578 545.25 854.561 C 550.54 853.346 565.338 852.472 571.291 851.975 L 624.21 847.505 L 795.624 832.608 C 820.76 830.38 855.064 828.338 879.167 824.775 C 875.447 829.65 870.84 834.106 871.479 840.09 C 874.054 842.877 872.516 841.902 876.4 842.88 C 877.27 842.598 878.139 842.316 879.009 842.035 C 889.506 825.795 911.725 795.045 920.908 779.947 z" fill="rgb(177,209,218)" transform="translate(0,0)"></path>
<path d="M 404.84 992.62 C 396.242 958.883 384.347 925.26 377.315 891.155 C 375.671 883.183 381.425 871.737 389.505 870.161 C 406.454 866.855 424.795 865.822 442.12 864.174 C 476.479 860.782 510.856 857.578 545.25 854.561 L 547.366 855.382 C 546.572 857.505 477.597 924.04 470.15 930.981 C 449.49 950.236 425.2 971.755 404.84 992.62 z" fill="rgb(254,229,167)" transform="translate(0,0)"></path>
<path d="M 1544.98 1225.01 C 1598.03 1258.69 1651.39 1291.89 1705.05 1324.61 L 1755.9 1356.32 C 1763.52 1361.11 1773.46 1368 1781.04 1372.22 C 1785.87 1374.52 1791.53 1377.41 1796.41 1379.39 C 1799.19 1389.15 1810.76 1415.57 1792.34 1417.29 C 1769.69 1419.39 1745.32 1422.65 1722.68 1423.29 C 1716.33 1424.78 1691 1426.52 1683.46 1427.18 L 1599.94 1434.73 L 1466.9 1447.73 C 1445.76 1449.71 1420.79 1452.57 1399.86 1453.38 C 1362.3 1431.71 1315.66 1406.28 1277.42 1386.2 C 1305.42 1370.53 1331.57 1353.31 1360.02 1337.65 L 1367.52 1344.59 C 1365.82 1340.42 1364.16 1338.13 1365.59 1334.32 C 1401.51 1310.78 1442.96 1287.23 1479.77 1264.34 C 1495.39 1254.62 1530.1 1232.58 1544.98 1225.01 z" fill="rgb(183,213,220)" transform="translate(0,0)"></path>
<path d="M 1360.02 1337.65 L 1367.52 1344.59 L 1368.65 1346.2 L 1370 1344.34 C 1374.63 1346.75 1378.89 1349.47 1383.45 1351.9 C 1429.95 1376.65 1479.91 1396.82 1530 1413.27 C 1543.64 1417.72 1557.38 1421.84 1571.22 1425.62 C 1577.31 1427.25 1597.2 1430.81 1599.64 1433.24 L 1599.94 1434.73 L 1466.9 1447.73 C 1445.76 1449.71 1420.79 1452.57 1399.86 1453.38 C 1362.3 1431.71 1315.66 1406.28 1277.42 1386.2 C 1305.42 1370.53 1331.57 1353.31 1360.02 1337.65 z" fill="rgb(253,252,246)" transform="translate(0,0)"></path>
<path d="M 1722.68 1423.29 C 1727.68 1417.39 1746.7 1404.94 1753.95 1398.95 C 1765.1 1389.76 1771.25 1382.78 1781.04 1372.22 C 1785.87 1374.52 1791.53 1377.41 1796.41 1379.39 C 1799.19 1389.15 1810.76 1415.57 1792.34 1417.29 C 1769.69 1419.39 1745.32 1422.65 1722.68 1423.29 z" fill="rgb(253,252,246)" transform="translate(0,0)"></path>
<path d="M 1244.17 810.648 C 1298.11 803.927 1359.64 799.56 1414.36 794.587 L 1480.22 788.848 C 1492.79 787.767 1505.94 786.221 1518.51 786.114 C 1525.03 786.058 1529.23 786.499 1534.21 790.695 C 1538.3 794.14 1540.52 796.862 1542.8 801.744 C 1551.1 819.533 1558.49 837.947 1566.18 856.014 L 1600.41 934.679 L 1687.06 1129.33 L 1453.57 927.273 C 1435.69 911.934 1418.14 895.844 1399.88 880.91 C 1393.37 875.587 1381.81 864.851 1374.83 861.267 C 1362.92 873.313 1340.37 904.063 1328.5 918.964 L 1299.41 955.411 C 1294.91 961.056 1286.44 971.221 1282.98 977.076 C 1270.31 977.066 1255.66 976.701 1243.16 977.135 L 1237.93 976.99 L 1200.08 977.385 L 1133.57 978.876 C 1147.22 955.554 1166.22 927.604 1181.37 904.805 C 1196.55 881.253 1217.07 847.929 1233.42 825.914 L 1236.56 821.109 C 1239.37 816.368 1240.57 814.847 1244.17 810.648 z" fill="rgb(183,213,220)" transform="translate(0,0)"></path>
<path d="M 1181.37 904.805 C 1196.55 881.253 1217.07 847.929 1233.42 825.914 C 1233.44 848.098 1232.47 869.657 1233.21 892.103 C 1234.12 919.761 1237.49 949.63 1237.93 976.99 L 1200.08 977.385 L 1133.57 978.876 C 1147.22 955.554 1166.22 927.604 1181.37 904.805 z" fill="rgb(254,229,167)" transform="translate(0,0)"></path>
<path d="M 1236.56 821.109 C 1237.44 823.303 1237 860.583 1237.09 866.961 C 1237.81 903.746 1239.83 940.494 1243.16 977.135 L 1237.93 976.99 C 1237.49 949.63 1234.12 919.761 1233.21 892.103 C 1232.47 869.657 1233.44 848.098 1233.42 825.914 L 1236.56 821.109 z" fill="rgb(253,252,246)" transform="translate(0,0)"></path>
<path d="M 1814.72 1311.03 C 1842.03 1370.69 1868.87 1430.57 1895.22 1490.67 C 1868.75 1494.23 1837.28 1495.84 1810.23 1497.87 C 1773.11 1500.67 1736.01 1503.74 1698.94 1507.09 L 1273.34 1546.7 C 1236.9 1550.22 1200.43 1553.44 1163.94 1556.36 C 1144.2 1558.04 1120.44 1559.57 1101.01 1562.2 C 1118.15 1538.77 1145.24 1510.25 1164.52 1485.64 C 1202.17 1481.4 1241.02 1478.67 1278.86 1474.99 L 1662.93 1438.93 L 1754.11 1430.59 C 1806.03 1425.93 1828.45 1429.43 1801.88 1367.83 C 1799.4 1362.08 1796.82 1355.46 1794.39 1349.61 C 1801.78 1340.38 1807.39 1321.94 1814.72 1311.03 z" fill="rgb(253,252,246)" transform="translate(0,0)"></path>
<path d="M 1092.02 1573.03 L 1613.48 1524.83 C 1707.31 1516.25 1801.23 1508.56 1895.21 1501.74 C 1885.6 1523.57 1870.76 1549.64 1860.01 1572.52 C 1770.42 1578 1674.88 1588.01 1585.19 1596.34 L 1020.99 1648.39 C 1024.18 1643.79 1047.63 1620.9 1052.43 1616.07 C 1066.8 1601.63 1078.59 1588.42 1092.02 1573.03 z" fill="rgb(253,252,246)" transform="translate(0,0)"></path>
<path d="M 1186.63 1092.77 C 1190.14 1095.14 1209.37 1123.36 1213.14 1129.31 C 1256.7 1197.99 1306.32 1263.38 1350.89 1331.17 C 1325.8 1346.05 1291.54 1368.76 1267.4 1381.26 C 1251.25 1373.18 1230.87 1361.22 1214.62 1352.48 L 1109.21 1294.61 C 1078.79 1278.09 1048.94 1262.69 1019.34 1244.68 C 1045.62 1220.23 1072.13 1196.01 1098.84 1172.03 C 1127.08 1146.18 1157.65 1117.46 1186.63 1092.77 z" fill="rgb(177,209,218)" transform="translate(0,0)"></path>
<path d="M 517.421 1626.41 L 717.545 1607.36 L 1092.02 1573.03 C 1078.59 1588.42 1066.8 1601.63 1052.43 1616.07 C 1047.63 1620.9 1024.18 1643.79 1020.99 1648.39 C 1018.21 1649.27 989.287 1651.76 984.606 1652.2 L 893.919 1660.7 L 499.931 1698.45 C 506.271 1674.56 512.102 1650.55 517.421 1626.41 z" fill="rgb(177,209,218)" transform="translate(0,0)"></path>
<path d="M 702.072 910.919 C 704.465 913.093 713.455 931.033 715.807 935.514 L 745.069 990.04 C 749.318 998.067 760.508 1024.86 768.41 1026.59 C 770.474 1025.91 771.983 1024.96 773.258 1023.15 C 797.423 988.817 821.236 953.514 846.08 919.693 C 851.56 928.271 857.867 937.273 863.598 945.762 C 824.862 1007.21 787.086 1072.81 749.916 1135.64 C 739.618 1116.47 697.871 1019.13 688.695 1011.34 C 683.006 1011.45 673.296 1021.08 668.5 1025.23 C 601.923 1079.86 529.111 1139.96 460.997 1191.88 C 454.464 1167.68 446.859 1143.31 440.172 1118.98 C 453.931 1107.19 471.435 1093.93 485.758 1082.49 L 592.34 997.934 C 624.863 972.053 669.332 933.231 702.072 910.919 z" fill="rgb(177,209,218)" transform="translate(0,0)"></path>
<path d="M 1283.73 749.227 C 1297.06 748.67 1319.86 745.202 1334.39 743.834 L 1465.69 731.169 C 1485.65 729.203 1524.27 722.832 1542.37 728.331 C 1563.29 734.689 1573.23 763.323 1580.83 781.642 C 1585.99 794.092 1591.88 808.071 1597.3 821.125 C 1611.54 854.515 1626.02 887.8 1640.74 920.978 C 1697.64 1051.48 1755.63 1181.5 1814.72 1311.03 C 1807.39 1321.94 1801.78 1340.38 1794.39 1349.61 L 1680.25 1088.58 C 1669.15 1063.48 1657.05 1038.78 1646.11 1013.58 L 1583.25 869.172 C 1572.27 844.023 1561.98 818.356 1549.82 793.824 C 1544.55 783.2 1534.19 776.446 1522.46 776.453 C 1510.07 776.46 1498.41 777.545 1486.12 778.571 L 1428.75 783.471 C 1369.3 788.33 1309.9 793.74 1250.56 799.699 C 1262.07 783.439 1272.3 765.809 1283.73 749.227 z" fill="rgb(183,213,220)" transform="translate(0,0)"></path>
<path d="M 1376.71 874.633 C 1401.66 894.83 1426.51 917.151 1450.92 938.098 L 1616.61 1081.88 C 1637.23 1099.9 1676.53 1131.19 1694.93 1149.87 C 1700.17 1155.19 1719.79 1205.53 1724.57 1216.23 C 1707.95 1205.55 1686.83 1188.04 1670.94 1175.44 C 1644.34 1154.76 1618.05 1133.69 1592.07 1112.23 L 1458.88 1003.74 L 1418.13 970.224 C 1410.89 964.247 1400.76 955.292 1393.04 950.492 C 1385.26 957.2 1371.66 976.702 1364.63 985.453 C 1343.03 1012.34 1322.12 1042.68 1299.9 1068.89 C 1287.44 1056.13 1272.72 1037.62 1261.06 1023.66 C 1267.42 1018.3 1297.42 990.283 1298.89 983.508 C 1297.73 981.347 1297 979.855 1296.03 977.608 C 1296.73 973.606 1367.33 886.026 1376.71 874.633 z" fill="rgb(183,213,220)" transform="translate(0,0)"></path>
<path d="M 293.133 844.619 C 300.86 812.492 319.322 816.996 347.676 814.356 L 410.536 808.708 L 607.197 790.847 C 598.764 800.389 562.676 835.404 558.487 843.455 C 518.093 848.513 476.418 850.027 435.969 855.205 C 417.845 857.526 385.217 855.927 373.465 870.553 C 360.891 886.201 373.295 916.439 378.414 934.399 C 384.667 955.956 390.775 977.555 396.735 999.194 C 389.173 1005.76 355.268 1039.28 350.601 1041.76 C 346.268 1021.84 333.978 983.587 327.781 962.399 C 316.877 925.115 305.58 880.811 293.133 844.619 z" fill="rgb(254,229,167)" transform="translate(0,0)"></path>
<path d="M 341.801 1047.18 C 377.495 1179.82 417.653 1313.51 455.281 1445.78 L 484.193 1545.51 C 486.137 1552.25 498.138 1592.64 497.911 1597.22 C 496.719 1621.26 490.848 1657.72 487.342 1681.92 C 427.999 1480.85 370.395 1279.27 314.536 1077.2 C 317.265 1075.37 337.968 1051.51 341.801 1047.18 z" fill="rgb(177,209,218)" transform="translate(0,0)"></path>
<path d="M 607.197 790.847 C 625.169 790.088 646.91 787.612 665.01 786.009 L 769.787 776.593 C 790.672 774.672 811.851 772.482 832.83 771.448 C 840.288 771.081 847.803 776.282 853.967 776.649 C 872.499 777.753 891.893 778.928 910.408 779.474 C 901.788 790.197 893.133 803.151 885.457 814.699 L 558.487 843.455 C 562.676 835.404 598.764 800.389 607.197 790.847 z" fill="rgb(177,209,218)" transform="translate(0,0)"></path>
<path d="M 977.85 1248.3 C 988.822 1237.23 1000.51 1227.15 1011.58 1216.17 C 1058.9 1169.25 1108.42 1126.31 1156.86 1080.41 C 1177.91 1060.46 1207.21 1034.65 1226.84 1013.02 C 1231.23 1008.18 1270.21 995.291 1278.23 993.321 C 1263.97 1008.64 1248.74 1021.23 1233.68 1035.51 C 1197.45 1069.85 1160 1102.73 1123.12 1136.36 C 1091.26 1165.3 1059.55 1194.39 1027.99 1223.65 C 1011.29 1239.26 989.227 1261.54 972.256 1275.92 C 969.596 1279.58 929.211 1316.11 923.065 1321.85 L 807.543 1428.48 C 788.403 1445.93 769.747 1461.83 750.812 1479.76 C 754.789 1471.32 763.679 1451.27 768.684 1444.56 C 770.09 1442.67 787.717 1427.25 790.425 1424.83 C 804.18 1412.65 817.738 1400.25 831.096 1387.63 C 880.316 1341.26 927.719 1293.99 977.85 1248.3 z" fill="rgb(254,229,167)" transform="translate(0,0)"></path>
<path d="M 999.176 748.044 L 1017.04 748.314 C 1007.63 782.671 989.186 809.076 971.283 839.341 L 909.541 942.821 C 878.022 995.045 845.766 1051.1 809.452 1100.4 C 803.126 1108.99 779.305 1125.59 769.606 1132.93 L 758.878 1141.71 C 771.395 1115.9 791.033 1084.95 805.95 1060.22 L 884.789 930.481 C 912.802 884.645 939.895 838.583 969.558 793.761 C 980.811 776.757 986.294 764.477 999.176 748.044 z" fill="rgb(157,175,131)" transform="translate(0,0)"></path>
<path d="M 1300.73 701.868 C 1301.05 705.649 1286.03 727.305 1283.11 731.909 C 1269.86 752.939 1256.3 773.763 1242.41 794.373 C 1202.37 854.467 1157.26 920.018 1120.28 981.439 C 1092.82 987.345 1071.55 995 1044.79 1002.45 C 1044.72 999.427 1278.22 727.586 1300.73 701.868 z" fill="rgb(254,229,167)" transform="translate(0,0)"></path>
<path d="M 990.075 1087.08 C 988.654 1101.43 858.644 1307.8 841.281 1335.82 L 815.288 1377.67 C 802.119 1399.08 802.274 1400.52 783.052 1417.13 C 781.572 1411.91 893.56 1212.79 905.8 1191.49 C 915.064 1175.37 935.699 1133.29 944.957 1115.87 C 955.908 1109.96 978.143 1094.49 990.075 1087.08 z" fill="rgb(254,229,167)" transform="translate(0,0)"></path>
<path d="M 1024.87 576.068 C 1025.18 582.221 1025.77 608.28 1026.58 612.312 C 1024.06 616.981 1012 630.653 1008.49 635.731 C 992.987 658.148 942.074 714.346 932.816 736.703 L 875.887 737.035 C 925.944 683.746 975.607 630.089 1024.87 576.068 z" fill="rgb(157,175,131)" transform="translate(0,0)"></path>
<path d="M 272.468 927.966 C 276.929 906.168 282.291 881.67 287.928 860.136 C 306.325 922.357 324.283 984.707 341.801 1047.18 C 337.968 1051.51 317.265 1075.37 314.536 1077.2 C 299.282 1027.76 287.554 976.385 272.468 927.966 z" fill="rgb(254,229,167)" transform="translate(0,0)"></path>
<path d="M 1202.68 410.751 C 1203.26 418.76 1186.17 474.649 1183.54 486.55 C 1171.54 540.914 1154.67 595.165 1142.36 649.444 C 1131.28 655.936 1110.99 667.949 1099.73 672.958 C 1098.67 666.699 1191.06 438.537 1202.68 410.751 z" fill="rgb(254,229,167)" transform="translate(0,0)"></path>
<path d="M 1024.87 576.068 C 1085.6 506.55 1147.15 437.758 1209.52 369.707 C 1205.92 378.403 1201.68 388.606 1195.9 396.164 C 1169.49 430.673 1140.68 463.28 1113.9 497.511 C 1094.05 523.065 1074.41 548.782 1054.98 574.659 C 1047.08 585.125 1034.73 602.825 1026.58 612.312 C 1025.77 608.28 1025.18 582.221 1024.87 576.068 z" fill="rgb(254,229,167)" transform="translate(0,0)"></path>
<path d="M 975.914 1082.5 L 976.503 1083.21 C 974.469 1085.93 932.267 1113.11 929.235 1113.55 C 876.097 1121.23 823.909 1134.04 771.397 1144.89 L 770.616 1144.34 C 771.464 1143.18 812.836 1111.5 813.802 1111.28 C 857.558 1101.27 933.576 1087.4 975.914 1082.5 z" fill="rgb(254,229,167)" transform="translate(0,0)"></path>
<path d="M 1147.88 657.982 C 1195.64 660.697 1253.88 669.813 1301.42 676.116 C 1284.64 678.932 1267.73 680.967 1250.76 682.215 C 1245.26 682.949 1239.34 683.072 1233.79 683.466 C 1189.1 686.641 1144.4 686.034 1099.64 685.853 C 1110.76 678.093 1135.55 664.543 1147.88 657.982 z" fill="rgb(254,229,167)" transform="translate(0,0)"></path>
<path d="M 1178.36 987.532 C 1205.48 986.732 1232.62 986.686 1259.74 987.394 C 1223.66 1003.08 1223.92 1003.34 1184.62 1005.52 C 1163.65 1006.54 1142.7 1007.81 1121.76 1009.34 C 1096.13 1011.62 1070.26 1012 1044.53 1013.9 C 1074.69 1003.75 1104.25 993.562 1136.02 989.173 C 1148.05 987.512 1165.92 987.711 1178.36 987.532 z" fill="rgb(254,229,167)" transform="translate(0,0)"></path>
<path d="M 895.874 746.449 C 926.373 745.183 959.898 746.589 990.453 748.125 C 985.382 755.516 980.198 762.161 974.723 769.231 C 965.495 769.793 955.891 769.778 946.619 769.9 C 923.256 769.989 871.605 769.319 850.089 765.673 C 855.572 760.254 861.194 753.724 866.396 747.932 L 895.874 746.449 z" fill="rgb(254,229,167)" transform="translate(0,0)"></path>
<path d="M 505.301 1624.68 C 507.976 1631.99 501.213 1659.96 498.672 1668.28 C 497.959 1664.32 503.712 1629.5 505.301 1624.68 z" fill="rgb(157,175,131)" transform="translate(0,0)"></path>
<metadata><recraft-signature>{"signed_by": "recraft", "signature_b64": "iQ94ltJbY+6azvVABTUbO/BsEtOi/vGdQzDIzjSSuYSEdSE5pscnK26x6BXY1ENxuArzgScShl8J9JRFQXMGDg==", "signing_algo": "Ed25519", "generation_timestamp": 1769576773, "identifier": "a722e4e1-cf6c-4b68-a363-2be1f67e980d"}</recraft-signature></metadata></svg>